<svg width="136" height="28" viewBox="0 0 136 28" fill="none" xmlns="http://www.w3.org/2000/svg">
<path d="M0 9.3355V14.26C1.69536 14.2588 3.37431 14.5895 4.94079 15.2331C6.50727 15.8766 7.93052 16.8205 9.12912 18.0106C10.3274 19.2003 11.2777 20.6128 11.9257 22.1672C12.5737 23.7217 12.9067 25.3877 12.9056 27.07H17.8633C17.8588 22.3685 15.9755 17.8608 12.6265 14.536C9.27759 11.2112 4.7366 9.34087 0 9.3355H0Z" fill="black"/>
<path d="M24.7934 0.470001H16.9365C20.9112 2.97014 24.279 6.31256 26.7984 10.2574V2.4587C26.798 1.93114 26.5866 1.42531 26.2106 1.05239C25.8347 0.679479 25.3249 0.470001 24.7934 0.470001V0.470001Z" fill="black"/>
<path d="M4.93657 0.470001H0V4.9038C5.92089 4.90992 11.5975 7.24722 15.7843 11.4028C19.9711 15.5585 22.326 21.193 22.3323 27.07H26.7985V22.17C25.7887 16.7846 23.1596 11.8289 19.2572 7.95545C15.3548 4.08199 10.3622 1.47231 4.93657 0.470001V0.470001Z" fill="black"/>
<path d="M38.9502 3.3981H35.8035V19.1411H38.9502V3.3981Z" fill="black"/>
<path d="M50.5201 10.2189C49.9963 9.74624 49.3831 9.38149 48.7162 9.14581C47.2835 8.64646 45.7222 8.64646 44.2895 9.14581C43.6222 9.38132 43.0088 9.74609 42.4848 10.2189C41.9709 10.6892 41.5604 11.2597 41.2789 11.8947C40.9879 12.5875 40.8381 13.3306 40.8381 14.0812C40.8381 14.8317 40.9879 15.5748 41.2789 16.2676C41.5593 16.9045 41.97 17.4765 42.4848 17.9476C43.0079 18.4208 43.621 18.7854 44.2881 19.02C45.7206 19.5202 47.2822 19.5202 48.7148 19.02C49.382 18.7854 49.9954 18.4208 50.5187 17.9476C51.0333 17.4764 51.444 16.9043 51.7246 16.2676C52.0156 15.5748 52.1654 14.8317 52.1654 14.0812C52.1654 13.3306 52.0156 12.5875 51.7246 11.8947C51.4434 11.2599 51.0334 10.6894 50.5201 10.2189ZM48.3593 15.9351C47.8498 16.3907 47.1883 16.6428 46.5025 16.6428C45.8167 16.6428 45.1552 16.3907 44.6456 15.9351C44.2173 15.4103 43.9836 14.7555 43.9836 14.0801C43.9836 13.4047 44.2173 12.7499 44.6456 12.2251C45.1552 11.7695 45.8167 11.5174 46.5025 11.5174C47.1883 11.5174 47.8498 11.7695 48.3593 12.2251C48.7876 12.7499 49.0213 13.4047 49.0213 14.0801C49.0213 14.7555 48.7876 15.4103 48.3593 15.9351V15.9351Z" fill="black"/>
<path d="M61.8172 10.354H61.7778C61.6322 10.1512 61.4632 9.96609 61.2742 9.8024C61.0453 9.60136 60.7917 9.42968 60.5196 9.2914C59.8318 8.94111 59.0684 8.76258 58.2954 8.7713C57.618 8.75953 56.9481 8.91339 56.3447 9.2193C55.7825 9.50826 55.2861 9.90877 54.8863 10.396C54.4786 10.8982 54.1658 11.4695 53.9632 12.0823C53.7477 12.7136 53.6378 13.3757 53.6381 14.0423C53.6301 14.7578 53.751 15.469 53.9949 16.1423C54.2159 16.7568 54.5605 17.3202 55.0076 17.7985C55.4531 18.2665 55.9937 18.6352 56.5937 18.88C57.246 19.1439 57.9451 19.2748 58.6494 19.265C59.1704 19.2561 59.6854 19.1539 60.1698 18.9633C60.7131 18.7588 61.1837 18.4002 61.5232 17.9322H61.5655V18.9122C61.5773 19.2391 61.523 19.565 61.4059 19.8707C61.2888 20.1764 61.1112 20.4558 60.8835 20.6923C60.5947 20.9459 60.257 21.1388 59.891 21.2591C59.5249 21.3794 59.138 21.4247 58.7538 21.3923C58.1445 21.3991 57.5407 21.2784 56.9815 21.0381C56.4252 20.7914 55.9061 20.4691 55.4392 20.0805L53.698 22.66C54.4097 23.229 55.2416 23.6312 56.1317 23.8367C57.0125 24.0377 57.9135 24.1389 58.8172 24.1384C60.8031 24.1384 62.282 23.6421 63.2538 22.6495C64.2256 21.6569 64.7117 20.2028 64.7122 18.2871V9.02121H61.8208L61.8172 10.354ZM61.6283 14.9663C61.5041 15.2626 61.3222 15.5317 61.093 15.758C60.8596 15.9888 60.5861 16.1757 60.2855 16.3096C59.9734 16.4472 59.6358 16.5182 59.2943 16.5182C58.9529 16.5182 58.6152 16.4472 58.3031 16.3096C58.0066 16.1738 57.7366 15.9871 57.5055 15.758C57.2753 15.5298 57.0927 15.2587 56.9681 14.9603C56.8435 14.662 56.7793 14.3422 56.7793 14.0192C56.7793 13.6962 56.8435 13.3764 56.9681 13.0781C57.0927 12.7797 57.2753 12.5087 57.5055 12.2804C57.7367 12.0513 58.0067 11.8644 58.3031 11.7281C58.6153 11.591 58.9529 11.5202 59.2943 11.5202C59.6357 11.5202 59.9733 11.591 60.2855 11.7281C60.5859 11.8625 60.8595 12.0496 61.093 12.2804C61.4392 12.6258 61.6747 13.0651 61.7699 13.543C61.8652 14.0209 61.8159 14.5161 61.6283 14.9663V14.9663Z" fill="black"/>
<path d="M76.5338 10.2189C76.0099 9.74624 75.3968 9.38149 74.7298 9.14581C73.2972 8.64646 71.7358 8.64646 70.3031 9.14581C69.6359 9.38132 69.0225 9.74609 68.4985 10.2189C67.9846 10.6892 67.574 11.2597 67.2925 11.8947C67.0016 12.5875 66.8518 13.3306 66.8518 14.0812C66.8518 14.8317 67.0016 15.5748 67.2925 16.2676C67.573 16.9045 67.9836 17.4765 68.4985 17.9476C69.022 18.4209 69.6356 18.7855 70.3031 19.02C71.7357 19.5202 73.2973 19.5202 74.7298 19.02C75.3971 18.7854 76.0104 18.4208 76.5338 17.9476C77.0486 17.4765 77.4593 16.9045 77.7397 16.2676C78.0307 15.5748 78.1805 14.8317 78.1805 14.0812C78.1805 13.3306 78.0307 12.5875 77.7397 11.8947C77.4582 11.2597 77.0477 10.6892 76.5338 10.2189V10.2189ZM74.373 15.9351C73.8634 16.3907 73.2019 16.6428 72.5161 16.6428C71.8303 16.6428 71.1688 16.3907 70.6593 15.9351C70.231 15.4103 69.9973 14.7555 69.9973 14.0801C69.9973 13.4047 70.231 12.7499 70.6593 12.2251C71.1688 11.7695 71.8303 11.5174 72.5161 11.5174C73.2019 11.5174 73.8634 11.7695 74.373 12.2251C74.8013 12.7499 75.035 13.4047 75.035 14.0801C75.035 14.7555 74.8013 15.4103 74.373 15.9351Z" fill="black"/>
<path d="M82.3548 9.09121H80.6672V19.1411H82.3548V9.09121Z" fill="black"/>
<path d="M81.5114 3.9378C81.3477 3.93472 81.1852 3.96556 81.0343 4.02836C80.8833 4.09116 80.7473 4.18453 80.6348 4.3025C80.4632 4.47422 80.3466 4.69251 80.2998 4.92986C80.253 5.16721 80.2781 5.413 80.3718 5.63626C80.4655 5.85951 80.6237 6.05024 80.8264 6.1844C81.0291 6.31856 81.2673 6.39015 81.511 6.39015C81.7547 6.39015 81.9929 6.31856 82.1956 6.1844C82.3983 6.05024 82.5565 5.85951 82.6502 5.63626C82.7439 5.413 82.769 5.16721 82.7222 4.92986C82.6754 4.69251 82.5588 4.47422 82.3872 4.3025C82.2749 4.18448 82.139 4.09107 81.9881 4.02826C81.8373 3.96545 81.6749 3.93464 81.5114 3.9378V3.9378Z" fill="black"/>
<path d="M94.8379 10.34C94.3632 9.85891 93.7921 9.4819 93.1616 9.2333C92.4696 8.96255 91.7312 8.82775 90.9874 8.8364C90.2867 8.82842 89.5939 8.98303 88.9641 9.2879C88.3438 9.59408 87.7947 10.0254 87.352 10.5542H87.3068V9.0912H85.6213V24.0376H87.3068V17.3596H87.3498C87.7081 17.9721 88.2302 18.4741 88.8583 18.81C89.5875 19.2153 90.4128 19.4193 91.2483 19.4008C91.9324 19.4051 92.61 19.2698 93.2392 19.0032C93.8467 18.7474 94.395 18.3711 94.8506 17.8972C95.3132 17.4129 95.677 16.8443 95.9218 16.2228C96.4409 14.8668 96.4409 13.369 95.9218 12.013C95.6749 11.39 95.3065 10.8215 94.8379 10.34V10.34ZM94.2427 15.59C94.0854 16.0276 93.8393 16.4285 93.5197 16.7679C93.2001 17.1073 92.8137 17.378 92.3844 17.5633C91.4354 17.9491 90.3716 17.9491 89.4225 17.5633C88.9926 17.378 88.6057 17.1071 88.2857 16.7673C87.9657 16.4275 87.7194 16.0261 87.5621 15.5879C87.2308 14.6355 87.2308 13.6003 87.5621 12.6479C87.7194 12.2097 87.9657 11.8083 88.2857 11.4685C88.6057 11.1287 88.9926 10.8578 89.4225 10.6725C90.3716 10.2867 91.4354 10.2867 92.3844 10.6725C92.8143 10.8578 93.2012 11.1287 93.5212 11.4685C93.8412 11.8083 94.0875 12.2097 94.2448 12.6479C94.5761 13.6003 94.5761 14.6355 94.2448 15.5879L94.2427 15.59Z" fill="black"/>
<path d="M104.812 14.12C104.491 13.882 104.134 13.6971 103.754 13.5726C103.337 13.4328 102.91 13.3215 102.477 13.2394C102.153 13.1844 101.832 13.1129 101.515 13.0252C101.232 12.949 100.957 12.8483 100.693 12.7242C100.481 12.6288 100.289 12.4938 100.128 12.3266C99.9916 12.1771 99.9182 11.9811 99.9231 11.7792C99.9198 11.5614 99.9841 11.3478 100.107 11.1674C100.228 10.9892 100.387 10.8391 100.572 10.7271C100.77 10.6083 100.986 10.5214 101.211 10.4695C101.442 10.4128 101.678 10.3839 101.916 10.3834C102.368 10.3694 102.815 10.4851 103.203 10.7166C103.553 10.9353 103.846 11.2332 104.058 11.586L105.464 10.6627C105.152 10.0524 104.646 9.56147 104.025 9.2662C103.398 8.97735 102.715 8.83077 102.024 8.8371C101.556 8.83599 101.09 8.90104 100.64 9.0303C100.208 9.15237 99.7992 9.34138 99.4273 9.5903C99.0718 9.82857 98.7758 10.1444 98.562 10.5136C98.3407 10.9068 98.2287 11.3513 98.2376 11.8016C98.22 12.2424 98.3208 12.6799 98.5296 13.0693C98.7201 13.395 98.986 13.6709 99.3053 13.8743C99.6579 14.095 100.04 14.2649 100.441 14.379C100.874 14.5078 101.328 14.6224 101.804 14.7227C102.079 14.7801 102.345 14.8445 102.604 14.9159C102.847 14.9806 103.08 15.0781 103.297 15.2057C103.488 15.318 103.653 15.4678 103.784 15.646C103.914 15.8433 103.978 16.0762 103.968 16.3117C103.975 16.5592 103.907 16.8032 103.773 17.0117C103.639 17.2093 103.461 17.3744 103.254 17.4947C103.03 17.6274 102.785 17.7221 102.529 17.7747C102.269 17.8313 102.005 17.8601 101.739 17.8608C101.213 17.881 100.692 17.7544 100.236 17.4954C99.8153 17.2299 99.4455 16.893 99.1431 16.5L97.8032 17.5311C98.218 18.1705 98.8068 18.6801 99.5014 19.0011C100.213 19.2816 100.975 19.4168 101.74 19.3987C102.239 19.3991 102.736 19.3416 103.221 19.2272C103.683 19.1213 104.122 18.936 104.52 18.6798C104.899 18.4298 105.213 18.0939 105.437 17.6998C105.679 17.2525 105.798 16.75 105.784 16.2424C105.797 15.806 105.708 15.3725 105.524 14.9761C105.356 14.64 105.112 14.347 104.812 14.12V14.12Z" fill="black"/>
<path d="M116.97 16.7576V9.09121H115.282V13.9912C115.288 14.5195 115.226 15.0463 115.098 15.5592C114.99 15.9989 114.799 16.4141 114.534 16.7828C114.283 17.1256 113.948 17.399 113.56 17.5773C113.115 17.7737 112.631 17.8694 112.143 17.8573C111.814 17.8838 111.483 17.8313 111.178 17.7042C110.873 17.5772 110.603 17.3793 110.391 17.1272C109.986 16.5417 109.787 15.8394 109.827 15.1301V9.09121H108.139V15.2974C108.134 15.86 108.21 16.4204 108.366 16.9613C108.502 17.4409 108.743 17.8848 109.071 18.2612C109.4 18.6292 109.811 18.9167 110.27 19.1012C110.818 19.3134 111.403 19.4157 111.99 19.4022C112.386 19.4054 112.78 19.3509 113.159 19.2405C113.501 19.1415 113.829 18.9972 114.132 18.8114C114.408 18.6427 114.659 18.4368 114.878 18.1996C115.075 17.9886 115.24 17.7496 115.366 17.4905H115.409C115.409 17.7775 115.416 18.0575 115.43 18.3305C115.445 18.6035 115.452 18.8756 115.452 19.1467H117.053C117.053 18.8168 117.039 18.4516 117.009 18.0512C116.98 17.6508 116.967 17.2196 116.97 16.7576Z" fill="black"/>
<path d="M135.208 11.2927C135.096 10.8064 134.874 10.3517 134.559 9.9627C134.241 9.58629 133.832 9.29707 133.369 9.1227C132.787 8.91413 132.17 8.81584 131.552 8.8329C130.88 8.80377 130.215 8.97993 129.648 9.3376C129.122 9.71228 128.68 10.1914 128.35 10.7446C128.264 10.5724 128.152 10.3755 128.014 10.1538C127.861 9.91445 127.667 9.70359 127.441 9.5308C127.163 9.32104 126.854 9.15571 126.524 9.0408C126.082 8.89313 125.616 8.82393 125.15 8.8364C124.755 8.83317 124.361 8.88765 123.982 8.9981C123.639 9.0971 123.312 9.24143 123.008 9.4272C122.732 9.59617 122.481 9.80204 122.262 10.039C122.065 10.25 121.901 10.489 121.775 10.7481H121.732C121.732 10.4611 121.724 10.1825 121.71 9.9081C121.696 9.6337 121.688 9.3642 121.688 9.0919H120.088C120.088 9.42183 120.102 9.787 120.131 10.1874C120.159 10.5878 120.174 11.0174 120.174 11.4761V19.1418H121.863V14.246C121.857 13.7175 121.919 13.1904 122.047 12.6773C122.154 12.2374 122.346 11.8221 122.611 11.4537C122.862 11.1108 123.197 10.8373 123.584 10.6592C124.03 10.4627 124.514 10.367 125.002 10.3792C125.29 10.3547 125.581 10.4066 125.843 10.5295C126.105 10.6525 126.33 10.8421 126.494 11.0792C126.856 11.8157 127.013 12.6351 126.949 13.4522V19.1432H128.633V13.343C128.628 12.9297 128.698 12.5188 128.839 12.1299C128.964 11.7851 129.155 11.4679 129.403 11.1961C129.637 10.9416 129.92 10.737 130.236 10.5948C130.555 10.4513 130.902 10.378 131.253 10.3799C131.67 10.3649 132.084 10.4456 132.464 10.6158C132.764 10.7595 133.024 10.9736 133.221 11.2395C133.411 11.5027 133.544 11.8024 133.611 12.1194C133.683 12.4511 133.719 12.7895 133.719 13.1288V19.1418H135.403V13.0427C135.409 12.4537 135.344 11.8661 135.208 11.2927Z" fill="black"/>
</svg>
